<?xml version="1.0" encoding="utf-8"?>
<!-- Generator: Adobe Illustrator 24.1.1, SVG Export Plug-In . SVG Version: 6.00 Build 0)  -->
<svg version="1.1" id="Capa_1" xmlns="http://www.w3.org/2000/svg" xmlns:xlink="http://www.w3.org/1999/xlink" x="0px" y="0px"
	 viewBox="0 0 512 512" style="enable-background:new 0 0 512 512;" xml:space="preserve">
<style type="text/css">
	.st0{fill:#FFFFFF;}
</style>
<g>
	<g>
		<path class="st0" d="M480,255.1H32c-17.6,0-32,14.4-32,32s14.4,32,32,32h448c17.6,0,32-14.4,32-32S497.6,255.1,480,255.1z
			 M480,297.7H32c-5.9,0-10.7-4.8-10.7-10.7s4.8-10.7,10.7-10.7h448c5.9,0,10.7,4.8,10.7,10.7S485.9,297.7,480,297.7z"/>
	</g>
</g>
<g>
	<g>
		<path class="st0" d="M482.9,298.1c-5.8-1.6-11.6,1.7-13.2,7.3l-29.4,102.9c-6.5,22.8-27.6,38.7-51.3,38.7H122.9
			c-23.7,0-44.8-15.9-51.3-38.7L42.3,305.5c-1.6-5.7-7.4-8.9-13.2-7.3c-5.7,1.6-8.9,7.5-7.3,13.2l29.4,102.9
			c9.1,31.9,38.6,54.2,71.8,54.2h266.1c33.2,0,62.7-22.3,71.8-54.2l29.4-102.9C491.9,305.7,488.6,299.7,482.9,298.1z"/>
	</g>
</g>
<g>
	<g>
		<path class="st0" d="M122.9,404.4c-4.7,0-8.9-3.2-10.3-7.7l-13.8-48.5c-1.6-5.7-7.5-9-13.2-7.3c-5.7,1.6-8.9,7.5-7.3,13.2
			l13.8,48.5c3.9,13.7,16.6,23.2,30.8,23.2c5.9,0,10.7-4.8,10.7-10.6C133.6,409.2,128.8,404.4,122.9,404.4z"/>
	</g>
</g>
<g>
	<g>
		<path class="st0" d="M143.4,448.2c-5.3-2.6-11.6-0.5-14.3,4.8l-21.3,42.7c-2.6,5.3-0.5,11.7,4.8,14.3c1.6,0.8,3.2,1.1,4.8,1.1
			c3.9,0,7.7-2.2,9.5-5.9l21.3-42.7C150.8,457.2,148.7,450.8,143.4,448.2z"/>
	</g>
</g>
<g>
	<g>
		<path class="st0" d="M404.2,495.6L382.9,453c-2.6-5.3-9-7.4-14.3-4.8c-5.3,2.6-7.4,9-4.8,14.3l21.3,42.7c1.9,3.7,5.6,5.9,9.5,5.9
			c1.6,0,3.2-0.4,4.8-1.1C404.7,507.3,406.8,500.9,404.2,495.6z"/>
	</g>
</g>
<g>
	<g>
		<path class="st0" d="M428.5,0.9c-10.9,0-21.1,4.2-28.8,11.9l-33.9,33.9c-4.2,4.2-4.2,10.9,0,15.1s10.9,4.2,15.1,0L414.7,28
			c3.6-3.7,8.5-5.7,13.8-5.7c10.7,0,19.4,8.7,19.4,19.4v224c0,5.9,4.8,10.7,10.7,10.7s10.7-4.8,10.7-10.7v-224
			C469.4,19.2,451.1,0.9,428.5,0.9z"/>
	</g>
</g>
<g>
	<g>
		<path class="st0" d="M391.6,57.4l-21.3-21.3c-2.5-2.5-5.8-3.6-9.3-3l-53.3,8.7c-3.9,0.6-7.1,3.4-8.4,7.2s-0.3,7.9,2.5,10.8
			l64,65.9c2,2.1,4.8,3.2,7.6,3.2c1,0,2-0.1,3.1-0.4c3.8-1.1,6.7-4.2,7.4-8.1l10.7-53.3C395.2,63.6,394.1,60,391.6,57.4z
			 M366.8,96.3l-35.6-36.7l27.8-4.5l13.4,13.4L366.8,96.3z"/>
	</g>
</g>
<g>
	<g>
		<path class="st0" d="M252.9,130.2c-4.2-4.2-10.9-4.2-15.1,0l-21.3,21.3c-4.2,4.2-4.2,10.9,0,15.1c2.1,2.1,4.8,3.1,7.6,3.1
			s5.5-1,7.5-3.1l21.3-21.3C257,141.1,257,134.3,252.9,130.2z"/>
	</g>
</g>
<g>
	<g>
		<path class="st0" d="M295.5,172.9c-4.2-4.2-10.9-4.2-15.1,0l-21.3,21.3c-4.2,4.2-4.2,10.9,0,15.1c2.1,2.1,4.8,3.1,7.6,3.1
			s5.5-1,7.5-3.1l21.3-21.3C299.7,183.8,299.7,177,295.5,172.9z"/>
	</g>
</g>
<g>
	<g>
		<path class="st0" d="M316.9,108.9c-4.2-4.2-10.9-4.2-15.1,0l-21.3,21.3c-4.2,4.2-4.2,10.9,0,15.1c2.1,2.1,4.8,3.1,7.6,3.1
			s5.5-1,7.5-3.1l21.3-21.3C321,119.8,321,113,316.9,108.9z"/>
	</g>
</g>
</svg>
