<?xml version="1.0" encoding="utf-8"?>
<!-- Generator: Adobe Illustrator 24.1.1, SVG Export Plug-In . SVG Version: 6.00 Build 0)  -->
<svg version="1.1" id="Capa_1" xmlns="http://www.w3.org/2000/svg" xmlns:xlink="http://www.w3.org/1999/xlink" x="0px" y="0px"
	 viewBox="0 0 512 512" style="enable-background:new 0 0 512 512;" xml:space="preserve">
<style type="text/css">
	.st0{fill:#FFFFFF;}
</style>
<path id="XMLID_874_" class="st0" d="M487,256.7v-9.8c0-18-9.3-33.8-23.3-42.9V97.6c0-28-22.8-50.8-50.8-50.8H99.1
	c-28,0-50.8,22.8-50.8,50.8V204c-14,9.1-23.3,25-23.3,42.9v9.8c-14.4,3.8-25,16.9-25,32.4v114.1c0,18,14.2,32.6,31.9,33.5v13.5
	c0,8.3,6.7,15,15,15s15-6.7,15-15v-13.5h388.3v13.5c0,8.3,6.7,15,15,15s15-6.7,15-15v-13.5c17.7-0.8,31.9-15.5,31.9-33.5V289.1
	C512,273.5,501.4,260.5,487,256.7z M78.3,97.6c0-11.5,9.3-20.8,20.8-20.8h313.8c11.5,0,20.8,9.3,20.8,20.8v98.1h-20v-26.4
	c0-18.5-15-33.5-33.5-33.5h-80.6c-18.5,0-33.5,15-33.5,33.5v26.4h-20.4v-26.4c0-18.5-15-33.5-33.5-33.5h-80.6
	c-18.5,0-33.5,15-33.5,33.5v26.4h-20V97.6z M383.8,169.3v22.8c0,2-1.6,3.6-3.6,3.6h-80.6c-2,0-3.6-1.6-3.6-3.6v-22.8
	c0-2,1.6-3.6,3.6-3.6h80.6C382.2,165.7,383.8,167.3,383.8,169.3L383.8,169.3z M215.8,169.3v22.8c0,2-1.6,3.6-3.6,3.6h-80.6
	c-2,0-3.6-1.6-3.6-3.6v-22.8c0-2,1.6-3.6,3.6-3.6h80.6C214.2,165.7,215.8,167.3,215.8,169.3z M54.9,246.9c0-11.7,9.6-21.3,21.3-21.3
	h359.5c11.7,0,21.3,9.6,21.3,21.3v8.6H54.9L54.9,246.9z M482.1,403.2c0,2-1.6,3.6-3.6,3.6h-445c-2,0-3.6-1.6-3.6-3.6V289.1
	c0-2,1.6-3.6,3.6-3.6h445c2,0,3.6,1.6,3.6,3.6L482.1,403.2L482.1,403.2z"/>
</svg>
