<?xml version="1.0" encoding="utf-8"?>
<!-- Generator: Adobe Illustrator 24.1.1, SVG Export Plug-In . SVG Version: 6.00 Build 0)  -->
<svg version="1.1" id="Capa_1" xmlns="http://www.w3.org/2000/svg" xmlns:xlink="http://www.w3.org/1999/xlink" x="0px" y="0px"
	 viewBox="0 0 471 471" style="enable-background:new 0 0 471 471;" xml:space="preserve">
<style type="text/css">
	.st0{fill:#FFFFFF;}
</style>
<g>
	<g>
		<path class="st0" d="M297.7,346.6c-4.9-7.1-8.7-18.3-2.8-58.3c6.2,7.4,18.6,19,34.8,17.2c23.5-2.6-17-7.1-5.9-35.9
			c11.1-28.8,60.1-162.9,13.4-214c-46.7-51-137.7-58.9-175-21.6s-68,113.2-21.6,209.3c0,0,22.1,41.9,4.5,55c0,0,30.1,4.1,41-13
			c5.5,35.7,3.7,49.6-0.2,57.6c-64.2,13-169.4,44.7-186,117.4h235.5H471C444.1,393.7,358,361.5,297.7,346.6z M189.4,270.7
			c-0.1-0.4,0-0.8-0.1-1.1c-0.3-1.3-0.7-2.6-1.1-3.9c-6.7-19.1-32.9-38.8-20.7-73.4c-0.2,3.1,1,8.2,7.9,15.8
			c12.4,13.7-23.6-94.9,14.4-111.2c0,0,91.6,26.2,73.3,77.2c0,0,28.8-17,31.4-31.4c2.6-14.4,9.2-2.6,7.9,19.6c0,0,21-8.9,30.2-23.9
			c-0.1,18.1-2,38.6-5.9,61.4l-7.9,42.9c-6.2,7-13.7,15-21.6,22.9c-1.3,1.3-2.6,2.6-3.9,3.9c-1.3,1.3-2.7,2.6-4,3.9
			c-19.7,19.3-40.1,36.6-48.5,36.6c-8.4,0-28.7-17.3-48.5-36.6C191.3,272.5,190.4,271.6,189.4,270.7z M240.7,421.7
			c-39.1,0-71-18-71-40.2c0-7.2,3.6-14.3,10.3-20.6l0.9-0.9c1.6-1.4,3.5-2.8,5.4-4.2l1.2-1.2c2.8-3.5,5.7-7.1,7.6-13.5
			c2.8-9.4,3.5-24.8-0.9-54.7c17.4,16.4,36.3,31.7,46.5,31.7c10.2,0,29.1-15.2,46.5-31.7c-4.9,33.4-3.5,48.7,0.2,57.8
			c1.9,4.7,4.3,7.7,6.8,10.8l0.9,0.8c2,1.3,3.8,2.8,5.5,4.2l0.9,0.8c6.7,6.3,10.3,13.4,10.3,20.6
			C311.7,403.6,279.9,421.7,240.7,421.7z"/>
	</g>
</g>
</svg>
